<svg xmlns="http://www.w3.org/2000/svg" width="206.179" height="26.402" viewBox="0 0 206.179 26.402"><defs><style>.a{fill:#5d89c7;}.b{fill:#adadad;}.c{fill:#bdc1cc;}.d{fill:#183761;}</style></defs><g transform="translate(-29 -1.546)"><g transform="translate(33.04 -74.67)"><g transform="translate(-4.04 68.421)"><g transform="translate(0 14.774)"><rect class="a" width="6.623" height="20.012" transform="translate(0 4.683) rotate(-45)"/><path class="b" d="M-4.04,150.389H2.583v-7.3l-6.623-6.68Z" transform="translate(4.04 -130.967)"/><rect class="c" width="6.622" height="20.012" transform="translate(10.751 5.272) rotate(-45)"/></g><g transform="translate(0.962 31.403)"><path class="d" d="M68.256-11.576V-1.206H64.993v-10c0-3.535-1.7-5.269-4.656-5.269-3.265,0-5.407,2.072-5.407,5.983v9.281H51.666v-10c0-3.535-1.7-5.269-4.656-5.269-3.265,0-5.405,2.072-5.405,5.983v9.281H38.34V-19.225h3.127v2.686A7.3,7.3,0,0,1,47.689-19.4c2.754,0,5.067,1.089,6.256,3.333A8.119,8.119,0,0,1,60.879-19.4C65.265-19.4,68.256-16.879,68.256-11.576Z" transform="translate(0 3.332)"/><path class="d" d="M75.317-9.128H60.7c.407,3.161,2.957,5.269,6.526,5.269a6.733,6.733,0,0,0,5.2-2.176l1.8,2.108A9.04,9.04,0,0,1,67.124-1c-5.812,0-9.689-3.842-9.689-9.213A8.825,8.825,0,0,1,66.477-19.4c5.2,0,8.908,3.739,8.908,9.282C75.385-9.842,75.351-9.434,75.317-9.128ZM60.7-11.474H72.257a5.618,5.618,0,0,0-5.779-5.167A5.614,5.614,0,0,0,60.7-11.474Z" transform="translate(15.103 3.332)"/><path class="d" d="M69.944-23.324h3.265V1.9H69.944Z" transform="translate(24.997 0.225)"/><path class="d" d="M74.879-21.468a2.147,2.147,0,0,1,2.21-2.14,2.115,2.115,0,0,1,2.21,2.072,2.137,2.137,0,0,1-2.21,2.176A2.121,2.121,0,0,1,74.879-21.468Zm.578,5.575h3.263V2.126H75.457Z" transform="translate(28.9)"/><path class="d" d="M79.529-10.216c0-5.371,3.978-9.179,9.383-9.179a8.938,8.938,0,0,1,9.349,9.179A8.965,8.965,0,0,1,88.912-1,8.993,8.993,0,0,1,79.529-10.216Zm15.434,0c0-3.842-2.584-6.322-6.052-6.322a5.936,5.936,0,0,0-6.084,6.322c0,3.842,2.617,6.358,6.084,6.358S94.963-6.375,94.963-10.216Z" transform="translate(32.578 3.332)"/><path class="d" d="M102.162-19.4v3.163a5.741,5.741,0,0,0-.747-.034c-3.5,0-5.677,2.142-5.677,6.084v8.976H92.475V-19.225H95.6V-16.2C96.757-18.306,99-19.4,102.162-19.4Z" transform="translate(42.817 3.332)"/><path class="d" d="M121.721,1.27l-.034-14.279-7,11.763H112.2L105.234-12.7V1.27h-5.167v-23.8h4.554L113.528-7.74,122.3-22.526h4.52l.068,23.8Z" transform="translate(48.822 0.856)"/><path class="d" d="M118.156-22.526h10.81c7.785,0,13.122,4.69,13.122,11.9s-5.337,11.9-13.122,11.9h-10.81ZM128.694-3.252c4.726,0,7.819-2.821,7.819-7.377s-3.093-7.377-7.819-7.377h-5.031V-3.252Z" transform="translate(63.129 0.856)"/></g></g></g></g></svg>