<?xml version="1.0" encoding="utf-8"?>
<!-- Generator: Adobe Illustrator 16.2.0, SVG Export Plug-In . SVG Version: 6.00 Build 0)  -->
<!DOCTYPE svg PUBLIC "-//W3C//DTD SVG 1.1//EN" "http://www.w3.org/Graphics/SVG/1.1/DTD/svg11.dtd">
<svg version="1.1" id="Layer_1" xmlns="http://www.w3.org/2000/svg" xmlns:xlink="http://www.w3.org/1999/xlink" x="0px" y="0px"
	 width="790px" height="380px" viewBox="0 0 790 380" enable-background="new 0 0 790 380" xml:space="preserve">
<rect y="0.001" fill="#193861" width="790" height="379.999"/>
<g>
	<g>
		<path fill="#FFFFFF" d="M309,188.738v29.553h-9.302v-28.487c0-10.077-4.845-15.018-13.274-15.018
			c-9.302,0-15.406,5.91-15.406,17.053v26.452h-9.302v-28.487c0-10.077-4.845-15.018-13.274-15.018
			c-9.302,0-15.406,5.91-15.406,17.053v26.452h-9.302v-51.354h8.914v7.655c3.682-5.232,9.98-8.139,17.731-8.139
			c7.849,0,14.437,3.101,17.829,9.496c3.875-5.813,11.046-9.496,19.766-9.496C300.473,166.453,309,173.623,309,188.738z"/>
		<path fill="#FFFFFF" d="M372.168,195.715h-41.664c1.163,9.01,8.43,15.018,18.604,15.018c6.008,0,11.046-2.035,14.825-6.201
			l5.135,6.008c-4.65,5.426-11.724,8.332-20.25,8.332c-16.569,0-27.615-10.947-27.615-26.258c0-15.212,10.949-26.161,25.774-26.161
			s25.386,10.658,25.386,26.452C372.362,193.68,372.265,194.842,372.168,195.715z M330.504,189.029h32.944
			c-0.969-8.624-7.461-14.728-16.472-14.728C338.062,174.301,331.473,180.308,330.504,189.029z"/>
		<path fill="#FFFFFF" d="M385.052,146.396h9.301v71.896h-9.301V146.396z"/>
		<path fill="#FFFFFF" d="M410.242,151.046c0-3.391,2.713-6.104,6.298-6.104c3.586,0,6.299,2.616,6.299,5.911
			c0,3.488-2.616,6.201-6.299,6.201C412.955,157.054,410.242,154.438,410.242,151.046z M411.89,166.937h9.302v51.354h-9.302V166.937
			z"/>
		<path fill="#FFFFFF" d="M433.979,192.613c0-15.309,11.337-26.161,26.743-26.161c15.405,0,26.646,10.852,26.646,26.161
			c0,15.311-11.24,26.258-26.646,26.258C445.315,218.871,433.979,207.924,433.979,192.613z M477.968,192.613
			c0-10.948-7.363-18.021-17.246-18.021c-9.884,0-17.345,7.073-17.345,18.021c0,10.949,7.461,18.119,17.345,18.119
			C470.604,210.732,477.968,203.563,477.968,192.613z"/>
		<path fill="#FFFFFF" d="M527.671,166.453v9.011c-0.775-0.097-1.453-0.097-2.132-0.097c-9.979,0-16.181,6.104-16.181,17.344v25.58
			h-9.302v-51.354h8.914v8.624C512.265,169.553,518.66,166.453,527.671,166.453z"/>
		<path fill="#FFFFFF" d="M600.532,218.291l-0.098-40.696l-19.96,33.526h-7.073l-19.863-32.654v39.824h-14.728v-67.826h12.983
			l25.387,42.148l24.998-42.148h12.887l0.194,67.826H600.532z"/>
		<path fill="#FFFFFF" d="M631.145,150.465h30.813c22.188,0,37.4,13.371,37.4,33.913c0,20.542-15.212,33.913-37.4,33.913h-30.813
			V150.465z M661.182,205.404c13.468,0,22.285-8.043,22.285-21.026c0-12.984-8.817-21.026-22.285-21.026h-14.34v42.052H661.182z"/>
	</g>
	<g id="Group_24_3_" transform="translate(-29 6.249)">
		<g id="Group_3_3_" transform="translate(33.04 -74.67)">
			<g id="Group_5_3_" transform="translate(-4.04 68.421)">
				<g id="Group_4_3_" transform="translate(0 14.774)">
					<g id="Group_3-2_3_">
						<polygon id="Rectangle_1_3_" fill="#2DA9E1" points="87.063,151.553 103.709,134.907 154.003,185.203 137.356,201.841 						
							"/>
						<path id="Path_1_3_" fill="#FFFFFF" d="M87.063,203.935h23.537v-25.939L87.063,154.25V203.935z"/>
					</g>
					<polygon id="Rectangle_2_3_" fill="#FFFFFF" points="125.273,153.643 141.918,137.006 192.211,187.296 175.572,203.935 					
						"/>
				</g>
			</g>
		</g>
	</g>
</g>
</svg>
