<?xml version="1.0" encoding="utf-8"?>
<!-- Generator: Adobe Illustrator 16.2.0, SVG Export Plug-In . SVG Version: 6.00 Build 0)  -->
<!DOCTYPE svg PUBLIC "-//W3C//DTD SVG 1.1//EN" "http://www.w3.org/Graphics/SVG/1.1/DTD/svg11.dtd">
<svg version="1.1" id="Layer_1" xmlns="http://www.w3.org/2000/svg" xmlns:xlink="http://www.w3.org/1999/xlink" x="0px" y="0px"
	 width="650px" height="100px" viewBox="0 0 650 100" enable-background="new 0 0 650 100" xml:space="preserve">
<g>
	<g>
		<path fill="#FFFFFF" d="M240.79,56.832v29.553h-9.302V57.896c0-10.076-4.845-15.018-13.274-15.018
			c-9.302,0-15.406,5.91-15.406,17.053v26.453h-9.302V57.896c0-10.076-4.845-15.018-13.274-15.018
			c-9.302,0-15.405,5.91-15.405,17.053v26.453h-9.302V35.03h8.914v7.655c3.682-5.232,9.979-8.139,17.731-8.139
			c7.849,0,14.437,3.101,17.828,9.496c3.876-5.813,11.046-9.496,19.767-9.496C232.263,34.546,240.79,41.716,240.79,56.832z"/>
		<path fill="#FFFFFF" d="M303.958,63.809h-41.664c1.163,9.01,8.43,15.018,18.604,15.018c6.008,0,11.046-2.035,14.825-6.201
			l5.135,6.008c-4.65,5.426-11.724,8.332-20.25,8.332c-16.569,0-27.615-10.947-27.615-26.258c0-15.212,10.949-26.161,25.774-26.161
			c14.824,0,25.386,10.658,25.386,26.452C304.152,61.773,304.055,62.936,303.958,63.809z M262.293,57.122h32.944
			c-0.969-8.624-7.461-14.728-16.472-14.728C269.851,42.394,263.263,48.401,262.293,57.122z"/>
		<path fill="#FFFFFF" d="M316.842,14.489h9.301v71.896h-9.301V14.489z"/>
		<path fill="#FFFFFF" d="M342.032,19.14c0-3.391,2.713-6.104,6.298-6.104c3.586,0,6.299,2.616,6.299,5.911
			c0,3.488-2.616,6.201-6.299,6.201C344.745,25.147,342.032,22.531,342.032,19.14z M343.679,35.03h9.302v51.354h-9.302V35.03z"/>
		<path fill="#FFFFFF" d="M365.768,60.707c0-15.309,11.337-26.161,26.743-26.161c15.405,0,26.646,10.852,26.646,26.161
			c0,15.311-11.24,26.258-26.646,26.258C377.105,86.965,365.768,76.018,365.768,60.707z M409.757,60.707
			c0-10.949-7.363-18.022-17.246-18.022c-9.884,0-17.345,7.073-17.345,18.022c0,10.949,7.461,18.119,17.345,18.119
			C402.394,78.826,409.757,71.656,409.757,60.707z"/>
		<path fill="#FFFFFF" d="M459.46,34.546v9.011c-0.775-0.097-1.453-0.097-2.132-0.097c-9.979,0-16.181,6.104-16.181,17.345v25.58
			h-9.302V35.03h8.914v8.624C444.054,37.646,450.45,34.546,459.46,34.546z"/>
		<path fill="#FFFFFF" d="M532.322,86.385l-0.098-40.696l-19.96,33.526h-7.073l-19.863-32.654v39.824H470.6V18.559h12.983
			l25.387,42.148l24.998-42.148h12.887l0.194,67.826H532.322z"/>
		<path fill="#FFFFFF" d="M562.934,18.559h30.813c22.188,0,37.4,13.371,37.4,33.913c0,20.542-15.212,33.914-37.4,33.914h-30.813
			V18.559z M592.971,73.498c13.468,0,22.285-8.043,22.285-21.027s-8.817-21.026-22.285-21.026h-14.34v42.053H592.971z"/>
	</g>
	<g id="Group_24_3_" transform="translate(-29 6.249)">
		<g id="Group_3_3_" transform="translate(33.04 -74.67)">
			<g id="Group_5_3_" transform="translate(-4.04 68.421)">
				<g id="Group_4_3_" transform="translate(0 14.774)">
					<g id="Group_3-2_3_">
						<polygon id="Rectangle_1_3_" fill="#2DA9E1" points="18.853,19.646 35.499,3 85.792,53.296 69.146,69.935 						"/>
						<path id="Path_1_3_" fill="#FFFFFF" d="M18.853,72.029H42.39V46.089L18.853,22.344V72.029z"/>
					</g>
					<polygon id="Rectangle_2_3_" fill="#FFFFFF" points="57.063,21.736 73.708,5.099 124,55.39 107.362,72.029 					"/>
				</g>
			</g>
		</g>
	</g>
</g>
</svg>
